<?xml version="1.0" encoding="UTF-8"?>
<svg xmlns="http://www.w3.org/2000/svg" xmlns:xlink="http://www.w3.org/1999/xlink" width="325px" height="90px" viewBox="0 0 325 90" version="1.1">
<g id="surface1">
<path style=" stroke:none;fill-rule:nonzero;fill:rgb(100%,100%,100%);fill-opacity:1;" d="M 161.140625 76.699219 L 162.769531 79.238281 L 164.40625 76.699219 L 167.667969 76.699219 L 164.585938 80.8125 L 167.972656 84.988281 L 164.527344 84.988281 L 162.769531 82.445312 L 161.019531 84.988281 L 157.574219 84.988281 L 160.957031 80.8125 L 157.875 76.699219 Z M 161.140625 76.699219 "/>
<path style=" stroke:none;fill-rule:nonzero;fill:rgb(100%,100%,100%);fill-opacity:1;" d="M 168.695312 89.703125 L 168.695312 76.699219 L 171.535156 76.699219 L 171.535156 77.726562 C 172.261719 76.820312 173.289062 76.515625 174.378906 76.515625 C 176.734375 76.515625 178.492188 78.574219 178.492188 80.871094 C 178.492188 83.171875 176.734375 85.167969 174.378906 85.167969 C 173.289062 85.167969 172.082031 84.804688 171.535156 83.957031 L 171.535156 89.644531 L 168.695312 89.644531 Z M 173.472656 82.929688 C 174.621094 82.929688 175.464844 81.960938 175.464844 80.871094 C 175.464844 79.785156 174.621094 78.816406 173.472656 78.816406 C 172.324219 78.816406 171.476562 79.785156 171.476562 80.871094 C 171.476562 81.960938 172.324219 82.929688 173.472656 82.929688 Z M 173.472656 82.929688 "/>
<path style=" stroke:none;fill-rule:nonzero;fill:rgb(100%,100%,100%);fill-opacity:1;" d="M 189.195312 81.175781 L 182.785156 81.175781 C 182.785156 82.140625 183.449219 83.171875 184.601562 83.171875 C 185.566406 83.171875 186.230469 82.503906 186.230469 81.902344 L 189.132812 81.902344 C 188.652344 84.078125 186.898438 85.167969 184.660156 85.167969 C 181.820312 85.167969 179.824219 83.472656 179.824219 80.871094 C 179.824219 78.269531 181.878906 76.515625 184.660156 76.515625 C 187.199219 76.515625 189.257812 78.027344 189.257812 80.691406 C 189.195312 80.8125 189.195312 80.992188 189.195312 81.175781 Z M 186.472656 79.84375 C 186.472656 79.84375 186.351562 78.332031 184.660156 78.332031 C 182.96875 78.332031 182.785156 79.84375 182.785156 79.84375 Z M 186.472656 79.84375 "/>
<path style=" stroke:none;fill-rule:nonzero;fill:rgb(100%,100%,100%);fill-opacity:1;" d="M 193.789062 80.8125 L 193.789062 84.925781 L 190.949219 84.925781 L 190.949219 76.636719 L 193.789062 76.636719 L 193.789062 77.667969 C 194.214844 77.0625 194.9375 76.457031 195.964844 76.457031 C 196.207031 76.457031 196.570312 76.515625 196.8125 76.636719 L 196.8125 79.179688 L 196.753906 79.179688 C 196.449219 78.816406 196.027344 78.695312 195.605469 78.695312 C 194.636719 78.753906 193.789062 79.84375 193.789062 80.8125 Z M 193.789062 80.8125 "/>
<path style=" stroke:none;fill-rule:nonzero;fill:rgb(100%,100%,100%);fill-opacity:1;" d="M 199.65625 72.222656 C 200.5625 72.222656 201.289062 72.949219 201.289062 73.855469 C 201.289062 74.761719 200.5625 75.488281 199.65625 75.488281 C 198.75 75.488281 198.023438 74.761719 198.023438 73.855469 C 198.023438 72.949219 198.75 72.222656 199.65625 72.222656 Z M 198.265625 84.984375 L 198.265625 76.699219 L 201.109375 76.699219 L 201.109375 84.984375 Z M 198.265625 84.984375 "/>
<path style=" stroke:none;fill-rule:nonzero;fill:rgb(100%,100%,100%);fill-opacity:1;" d="M 212.351562 81.175781 L 205.941406 81.175781 C 205.941406 82.140625 206.609375 83.171875 207.757812 83.171875 C 208.722656 83.171875 209.390625 82.503906 209.390625 81.902344 L 212.292969 81.902344 C 211.808594 84.078125 210.054688 85.167969 207.816406 85.167969 C 204.976562 85.167969 202.980469 83.472656 202.980469 80.871094 C 202.980469 78.269531 205.035156 76.515625 207.816406 76.515625 C 210.359375 76.515625 212.414062 78.027344 212.414062 80.691406 C 212.351562 80.8125 212.351562 80.992188 212.351562 81.175781 Z M 209.691406 79.84375 C 209.691406 79.84375 209.570312 78.332031 207.878906 78.332031 C 206.183594 78.332031 206.003906 79.84375 206.003906 79.84375 Z M 209.691406 79.84375 "/>
<path style=" stroke:none;fill-rule:nonzero;fill:rgb(100%,100%,100%);fill-opacity:1;" d="M 222.632812 84.984375 L 219.792969 84.984375 L 219.792969 80.265625 C 219.792969 79.300781 219.429688 78.753906 218.523438 78.753906 C 217.613281 78.753906 216.949219 79.722656 216.949219 80.8125 L 216.949219 84.925781 L 214.109375 84.925781 L 214.109375 76.636719 L 216.949219 76.636719 L 216.949219 77.667969 C 217.496094 76.941406 218.402344 76.457031 219.488281 76.457031 C 221.726562 76.457031 222.632812 77.96875 222.632812 80.207031 Z M 222.632812 84.984375 "/>
<path style=" stroke:none;fill-rule:nonzero;fill:rgb(100%,100%,100%);fill-opacity:1;" d="M 227.167969 80.871094 C 227.167969 81.839844 227.527344 83.050781 228.859375 83.050781 C 229.707031 83.050781 230.371094 82.6875 230.492188 81.902344 L 233.210938 81.902344 C 232.910156 83.714844 231.277344 85.167969 228.738281 85.167969 C 225.835938 85.167969 224.144531 83.230469 224.144531 80.871094 C 224.144531 78.511719 225.957031 76.515625 228.738281 76.515625 C 231.519531 76.515625 233.152344 78.089844 233.273438 80.023438 L 230.492188 80.023438 C 230.429688 79.238281 229.824219 78.695312 228.859375 78.695312 C 227.527344 78.695312 227.167969 79.90625 227.167969 80.871094 Z M 227.167969 80.871094 "/>
<path style=" stroke:none;fill-rule:nonzero;fill:rgb(100%,100%,100%);fill-opacity:1;" d="M 243.914062 81.175781 L 237.507812 81.175781 C 237.507812 82.140625 238.171875 83.171875 239.320312 83.171875 C 240.289062 83.171875 240.953125 82.503906 240.953125 81.902344 L 243.855469 81.902344 C 243.371094 84.078125 241.617188 85.167969 239.378906 85.167969 C 236.539062 85.167969 234.542969 83.472656 234.542969 80.871094 C 234.542969 78.269531 236.597656 76.515625 239.378906 76.515625 C 241.921875 76.515625 243.976562 78.027344 243.976562 80.691406 C 243.914062 80.8125 243.914062 80.992188 243.914062 81.175781 Z M 241.253906 79.84375 C 241.253906 79.84375 241.132812 78.332031 239.441406 78.332031 C 237.746094 78.332031 237.566406 79.84375 237.566406 79.84375 Z M 241.253906 79.84375 "/>
<path style=" stroke:none;fill-rule:nonzero;fill:rgb(100%,100%,100%);fill-opacity:1;" d="M 258.910156 84.984375 L 256.066406 84.984375 L 256.066406 80.265625 C 256.066406 79.300781 255.707031 78.753906 254.796875 78.753906 C 253.890625 78.753906 253.226562 79.722656 253.226562 80.8125 L 253.226562 84.925781 L 250.382812 84.925781 L 250.382812 76.636719 L 253.226562 76.636719 L 253.226562 77.667969 C 253.769531 76.941406 254.675781 76.457031 255.765625 76.457031 C 258.003906 76.457031 258.910156 77.96875 258.910156 80.207031 Z M 258.910156 84.984375 "/>
<path style=" stroke:none;fill-rule:nonzero;fill:rgb(100%,100%,100%);fill-opacity:1;" d="M 267.375 76.699219 L 270.21875 76.699219 L 270.21875 84.984375 C 270.21875 87.707031 268.039062 89.703125 265.441406 89.703125 C 263.203125 89.703125 260.726562 88.554688 260.605469 86.074219 L 263.445312 86.074219 C 263.628906 87.042969 264.414062 87.648438 265.320312 87.648438 C 266.589844 87.648438 267.4375 86.496094 267.4375 85.347656 L 267.4375 84.019531 C 266.894531 84.863281 265.621094 85.226562 264.59375 85.226562 C 262.238281 85.226562 260.484375 83.171875 260.484375 80.871094 C 260.484375 78.574219 262.238281 76.578125 264.59375 76.578125 C 265.621094 76.578125 266.652344 76.820312 267.4375 77.785156 L 267.4375 76.699219 Z M 267.375 80.8125 C 267.375 79.722656 266.53125 78.753906 265.382812 78.753906 C 264.230469 78.753906 263.386719 79.722656 263.386719 80.8125 C 263.386719 81.898438 264.230469 82.929688 265.382812 82.929688 C 266.53125 82.929688 267.375 81.960938 267.375 80.8125 Z M 267.375 80.8125 "/>
<path style=" stroke:none;fill-rule:nonzero;fill:rgb(100%,100%,100%);fill-opacity:1;" d="M 281.339844 81.175781 L 274.929688 81.175781 C 274.929688 82.140625 275.597656 83.171875 276.746094 83.171875 C 277.710938 83.171875 278.378906 82.503906 278.378906 81.902344 L 281.28125 81.902344 C 280.796875 84.078125 279.042969 85.167969 276.804688 85.167969 C 273.964844 85.167969 271.96875 83.472656 271.96875 80.871094 C 271.96875 78.269531 274.023438 76.515625 276.804688 76.515625 C 279.34375 76.515625 281.402344 78.027344 281.402344 80.691406 C 281.402344 80.8125 281.339844 80.992188 281.339844 81.175781 Z M 278.679688 79.84375 C 278.679688 79.84375 278.558594 78.332031 276.867188 78.332031 C 275.171875 78.332031 274.992188 79.84375 274.992188 79.84375 Z M 278.679688 79.84375 "/>
<path style=" stroke:none;fill-rule:nonzero;fill:rgb(100%,100%,100%);fill-opacity:1;" d="M 291.621094 84.988281 L 288.78125 84.988281 L 288.78125 80.269531 C 288.78125 79.300781 288.417969 78.753906 287.511719 78.753906 C 286.605469 78.753906 285.9375 79.722656 285.9375 80.8125 L 285.9375 84.925781 L 283.097656 84.925781 L 283.097656 76.636719 L 285.9375 76.636719 L 285.9375 77.667969 C 286.484375 76.941406 287.390625 76.457031 288.476562 76.457031 C 290.714844 76.457031 291.621094 77.96875 291.621094 80.207031 Z M 291.621094 84.988281 "/>
<path style=" stroke:none;fill-rule:nonzero;fill:rgb(100%,100%,100%);fill-opacity:1;" d="M 293.433594 76.699219 L 296.277344 76.699219 L 296.277344 81.417969 C 296.277344 82.386719 296.640625 82.929688 297.546875 82.929688 C 298.453125 82.929688 299.117188 81.960938 299.117188 80.871094 L 299.117188 76.699219 L 301.960938 76.699219 L 301.960938 84.988281 L 299.117188 84.988281 L 299.117188 83.957031 C 298.574219 84.683594 297.667969 85.167969 296.578125 85.167969 C 294.339844 85.167969 293.433594 83.65625 293.433594 81.417969 Z M 293.433594 76.699219 "/>
<path style=" stroke:none;fill-rule:nonzero;fill:rgb(100%,100%,100%);fill-opacity:1;" d="M 305.648438 72.222656 C 306.554688 72.222656 307.28125 72.949219 307.28125 73.855469 C 307.28125 74.761719 306.554688 75.488281 305.648438 75.488281 C 304.742188 75.488281 304.015625 74.761719 304.015625 73.855469 C 304.015625 72.949219 304.742188 72.222656 305.648438 72.222656 Z M 304.257812 84.984375 L 304.257812 76.699219 L 307.097656 76.699219 L 307.097656 84.984375 Z M 304.257812 84.984375 "/>
<path style=" stroke:none;fill-rule:nonzero;fill:rgb(100%,100%,100%);fill-opacity:1;" d="M 312.964844 84.984375 L 310.183594 84.984375 L 310.183594 78.875 L 308.671875 78.875 L 308.671875 76.699219 L 310.183594 76.699219 L 310.183594 73.550781 L 312.964844 73.550781 L 312.964844 76.699219 L 314.476562 76.699219 L 314.476562 78.875 L 312.964844 78.875 Z M 312.964844 84.984375 "/>
<path style=" stroke:none;fill-rule:nonzero;fill:rgb(100%,100%,100%);fill-opacity:1;" d="M 316.410156 89.703125 L 318.285156 84.988281 L 317.800781 84.988281 L 314.65625 76.699219 L 317.5 76.699219 L 319.492188 82.628906 L 321.488281 76.699219 L 324.332031 76.699219 L 321.1875 84.988281 L 319.375 89.703125 Z M 316.410156 89.703125 "/>
<path style=" stroke:none;fill-rule:nonzero;fill:rgb(100%,100%,100%);fill-opacity:1;" d="M 133.203125 29.453125 L 144.996094 29.453125 L 144.996094 64.054688 C 144.996094 75.429688 135.984375 83.777344 124.980469 83.777344 C 115.546875 83.777344 105.269531 79.058594 104.726562 68.53125 L 116.457031 68.53125 C 117.300781 72.644531 120.566406 75.066406 124.316406 75.066406 C 129.515625 75.066406 133.203125 70.347656 133.203125 65.386719 L 133.203125 59.882812 C 130.847656 63.511719 125.765625 64.902344 121.351562 64.902344 C 111.558594 64.902344 104.121094 56.3125 104.121094 46.753906 C 104.121094 37.195312 111.496094 28.667969 121.351562 28.667969 C 125.765625 28.667969 129.816406 29.753906 133.203125 33.6875 Z M 133.203125 46.753906 C 133.203125 42.21875 129.699219 38.105469 124.980469 38.105469 C 120.265625 38.105469 116.757812 42.21875 116.757812 46.753906 C 116.757812 51.292969 120.265625 55.464844 124.980469 55.464844 C 129.699219 55.464844 133.203125 51.414062 133.203125 46.753906 Z M 133.203125 46.753906 "/>
<path style=" stroke:none;fill-rule:nonzero;fill:rgb(100%,100%,100%);fill-opacity:1;" d="M 191.796875 48.265625 L 164.949219 48.265625 C 164.949219 52.257812 167.792969 56.496094 172.386719 56.496094 C 176.558594 56.496094 179.160156 53.773438 179.21875 51.230469 L 191.253906 51.230469 C 189.195312 60.367188 181.820312 64.902344 172.628906 64.902344 C 160.71875 64.902344 152.433594 57.824219 152.433594 46.816406 C 152.433594 35.804688 161.019531 28.667969 172.628906 28.667969 C 183.148438 28.667969 191.855469 34.957031 191.855469 46.027344 C 191.855469 46.753906 191.796875 47.542969 191.796875 48.265625 Z M 180.550781 42.703125 C 180.550781 42.703125 180.003906 36.230469 172.871094 36.230469 C 165.734375 36.230469 165.070312 42.703125 165.070312 42.703125 Z M 180.550781 42.703125 "/>
<path style=" stroke:none;fill-rule:nonzero;fill:rgb(100%,100%,100%);fill-opacity:1;" d="M 234.722656 64.117188 L 222.933594 64.117188 L 222.933594 44.457031 C 222.933594 40.34375 221.359375 38.164062 217.671875 38.164062 C 213.984375 38.164062 211.082031 42.097656 211.082031 46.816406 L 211.082031 64.117188 L 199.289062 64.117188 L 199.289062 29.453125 L 211.082031 29.453125 L 211.082031 33.6875 C 213.4375 30.722656 217.128906 28.667969 221.660156 28.667969 C 230.914062 28.667969 234.722656 35.019531 234.722656 44.457031 Z M 234.722656 64.117188 "/>
<path style=" stroke:none;fill-rule:nonzero;fill:rgb(100%,100%,100%);fill-opacity:1;" d="M 242.21875 29.453125 L 254.011719 29.453125 L 254.011719 49.175781 C 254.011719 53.167969 255.582031 55.464844 259.269531 55.464844 C 262.957031 55.464844 265.863281 51.472656 265.863281 46.816406 L 265.863281 29.453125 L 277.652344 29.453125 L 277.652344 64.117188 L 265.863281 64.117188 L 265.863281 59.882812 C 263.503906 62.84375 259.8125 64.902344 255.28125 64.902344 C 246.03125 64.902344 242.21875 58.550781 242.21875 49.175781 Z M 242.21875 29.453125 "/>
<path style=" stroke:none;fill-rule:nonzero;fill:rgb(100%,100%,100%);fill-opacity:1;" d="M 295.546875 29.574219 L 302.378906 40.160156 L 309.210938 29.574219 L 322.878906 29.574219 L 309.9375 46.695312 L 324.023438 64.117188 L 309.636719 64.117188 L 302.378906 53.410156 L 295.125 64.117188 L 280.734375 64.117188 L 294.820312 46.695312 L 281.882812 29.574219 Z M 295.546875 29.574219 "/>
<path style=" stroke:none;fill-rule:nonzero;fill:rgb(92.54902%,30.19608%,21.568628%);fill-opacity:1;" d="M 121.589844 38.828125 C 126.308594 41.550781 126.308594 48.328125 121.589844 51.050781 L 88.757812 70.042969 L 55.925781 89.039062 C 51.210938 91.761719 45.347656 88.375 45.347656 82.929688 L 45.347656 7.070312 C 45.347656 1.625 51.210938 -1.761719 55.925781 0.960938 L 88.757812 19.957031 Z M 121.589844 38.828125 "/>
<path style=" stroke:none;fill-rule:nonzero;fill:rgb(100%,100%,100%);fill-opacity:1;" d="M 97.953125 64.117188 L 85.375 64.117188 L 85.375 43.125 C 85.375 38.769531 83.683594 36.410156 79.753906 36.410156 C 75.820312 36.410156 72.679688 40.582031 72.679688 45.664062 L 72.679688 64.117188 L 60.101562 64.117188 L 60.101562 27.09375 L 72.679688 27.09375 L 72.679688 31.628906 C 75.21875 28.425781 79.148438 26.246094 83.984375 26.246094 C 93.902344 26.246094 97.890625 33.023438 97.890625 43.125 Z M 97.953125 64.117188 "/>
<path style=" stroke:none;fill-rule:nonzero;fill:rgb(92.54902%,30.19608%,21.568628%);fill-opacity:1;" d="M 3.566406 32.175781 L 24.066406 32.175781 C 26 32.175781 27.632812 33.503906 27.632812 35.140625 L 27.632812 35.199219 C 27.632812 36.832031 26.058594 38.164062 24.066406 38.164062 L 3.566406 38.164062 C 1.632812 38.164062 0 36.832031 0 35.199219 L 0 35.140625 C 0.0585938 33.503906 1.632812 32.175781 3.566406 32.175781 Z M 3.566406 32.175781 "/>
<path style=" stroke:none;fill-rule:nonzero;fill:rgb(100%,100%,100%);fill-opacity:1;" d="M 29.871094 35.199219 C 29.871094 33.628906 31.140625 32.296875 32.773438 32.296875 C 34.34375 32.296875 35.675781 33.566406 35.675781 35.199219 C 35.675781 36.773438 34.40625 38.105469 32.773438 38.105469 C 31.199219 38.105469 29.871094 36.832031 29.871094 35.199219 Z M 29.871094 35.199219 "/>
<path style=" stroke:none;fill-rule:nonzero;fill:rgb(100%,100%,100%);fill-opacity:1;" d="M 37.730469 35.199219 C 37.730469 33.628906 39 32.296875 40.632812 32.296875 C 42.203125 32.296875 43.535156 33.566406 43.535156 35.199219 C 43.535156 36.773438 42.261719 38.105469 40.632812 38.105469 C 39.058594 38.105469 37.730469 36.832031 37.730469 35.199219 Z M 37.730469 35.199219 "/>
<path style=" stroke:none;fill-rule:nonzero;fill:rgb(100%,100%,100%);fill-opacity:1;" d="M 20.921875 42.703125 C 20.921875 41.128906 22.191406 39.796875 23.824219 39.796875 C 25.394531 39.796875 26.726562 41.066406 26.726562 42.703125 C 26.726562 44.273438 25.457031 45.605469 23.824219 45.605469 C 22.191406 45.605469 20.921875 44.335938 20.921875 42.703125 Z M 20.921875 42.703125 "/>
<path style=" stroke:none;fill-rule:nonzero;fill:rgb(92.54902%,30.19608%,21.568628%);fill-opacity:1;" d="M 32.589844 39.859375 L 50.910156 39.859375 C 52.847656 39.859375 54.480469 41.1875 54.480469 42.824219 L 54.480469 42.882812 C 54.480469 44.515625 52.90625 45.847656 50.910156 45.847656 L 32.589844 45.847656 C 30.65625 45.847656 29.023438 44.515625 29.023438 42.882812 L 29.023438 42.824219 C 29.085938 41.1875 30.65625 39.859375 32.589844 39.859375 Z M 32.589844 39.859375 "/>
<path style=" stroke:none;fill-rule:nonzero;fill:rgb(100%,100%,100%);fill-opacity:1;" d="M 24.003906 58.066406 C 24.003906 56.492188 25.273438 55.164062 26.90625 55.164062 C 28.480469 55.164062 29.808594 56.433594 29.808594 58.066406 C 29.808594 59.640625 28.539062 60.96875 26.90625 60.96875 C 25.273438 60.96875 24.003906 59.699219 24.003906 58.066406 Z M 24.003906 58.066406 "/>
<path style=" stroke:none;fill-rule:nonzero;fill:rgb(92.54902%,30.19608%,21.568628%);fill-opacity:1;" d="M 35.675781 55.222656 L 53.996094 55.222656 C 55.929688 55.222656 57.5625 56.554688 57.5625 58.1875 L 57.5625 58.25 C 57.5625 59.882812 55.988281 61.210938 53.996094 61.210938 L 35.675781 61.210938 C 33.738281 61.210938 32.105469 59.882812 32.105469 58.25 L 32.105469 58.1875 C 32.167969 56.492188 33.738281 55.222656 35.675781 55.222656 Z M 35.675781 55.222656 "/>
<path style=" stroke:none;fill-rule:nonzero;fill:rgb(92.54902%,30.19608%,21.568628%);fill-opacity:1;" d="M 18.984375 47.539062 L 39.902344 47.539062 C 41.839844 47.539062 43.472656 48.871094 43.472656 50.503906 L 43.472656 50.566406 C 43.472656 52.199219 41.898438 53.527344 39.902344 53.527344 L 18.984375 53.527344 C 17.046875 53.527344 15.414062 52.199219 15.414062 50.566406 L 15.414062 50.445312 C 15.476562 48.8125 17.046875 47.539062 18.984375 47.539062 Z M 18.984375 47.539062 "/>
</g>
</svg>
