<svg width="224" height="62" viewBox="0 0 224 62" fill="none" xmlns="http://www.w3.org/2000/svg">
<path d="M111.062 52.8372L112.187 54.5875L113.313 52.8372H115.563L113.438 55.671L115.771 58.5465H113.396L112.187 56.7962L110.979 58.5465H108.604L110.937 55.671L108.812 52.8372H111.062Z" fill="white"/>
<path d="M116.27 61.7963V52.8364H118.228V53.5449C118.728 52.9198 119.437 52.7114 120.187 52.7114C121.812 52.7114 123.021 54.1283 123.021 55.7119C123.021 57.2955 121.812 58.6708 120.187 58.6708C119.437 58.6708 118.603 58.4207 118.228 57.8373V61.7546H116.27V61.7963ZM119.562 57.1288C120.354 57.1288 120.937 56.4621 120.937 55.7119C120.937 54.9618 120.354 54.295 119.562 54.295C118.77 54.295 118.187 54.9618 118.187 55.7119C118.187 56.4621 118.77 57.1288 119.562 57.1288Z" fill="white"/>
<path d="M130.399 55.9203H125.982C125.982 56.5871 126.44 57.2955 127.232 57.2955C127.899 57.2955 128.357 56.8371 128.357 56.4204H130.357C130.024 57.9206 128.816 58.6708 127.274 58.6708C125.315 58.6708 123.94 57.5039 123.94 55.7119C123.94 53.92 125.357 52.7114 127.274 52.7114C129.024 52.7114 130.441 53.7533 130.441 55.5869C130.399 55.6703 130.399 55.7953 130.399 55.9203ZM128.524 55.0035C128.524 55.0035 128.44 53.9616 127.274 53.9616C126.107 53.9616 125.982 55.0035 125.982 55.0035H128.524Z" fill="white"/>
<path d="M133.566 55.6704V58.5042H131.607V52.7949H133.566V53.5034C133.858 53.0867 134.358 52.6699 135.066 52.6699C135.233 52.6699 135.483 52.7116 135.65 52.7949V54.5452H135.608C135.4 54.2952 135.108 54.2118 134.816 54.2118C134.15 54.2535 133.566 55.0036 133.566 55.6704Z" fill="white"/>
<path d="M137.61 49.7529C138.235 49.7529 138.735 50.253 138.735 50.8781C138.735 51.5032 138.235 52.0033 137.61 52.0033C136.984 52.0033 136.484 51.5032 136.484 50.8781C136.484 50.253 136.984 49.7529 137.61 49.7529ZM136.651 58.5461V52.8368H138.61V58.5461H136.651Z" fill="white"/>
<path d="M146.36 55.9203H141.942C141.942 56.5871 142.401 57.2955 143.193 57.2955C143.859 57.2955 144.318 56.8371 144.318 56.4204H146.318C145.985 57.9206 144.776 58.6708 143.234 58.6708C141.276 58.6708 139.9 57.5039 139.9 55.7119C139.9 53.92 141.317 52.7114 143.234 52.7114C144.985 52.7114 146.401 53.7533 146.401 55.5869C146.36 55.6703 146.36 55.7953 146.36 55.9203ZM144.526 55.0035C144.526 55.0035 144.443 53.9616 143.276 53.9616C142.109 53.9616 141.984 55.0035 141.984 55.0035H144.526Z" fill="white"/>
<path d="M153.446 58.5459H151.488V55.2954C151.488 54.6286 151.238 54.2535 150.612 54.2535C149.987 54.2535 149.529 54.9203 149.529 55.6704V58.5042H147.57V52.7949H149.529V53.5034C149.904 53.0033 150.529 52.6699 151.279 52.6699C152.821 52.6699 153.446 53.7118 153.446 55.2537V58.5459Z" fill="white"/>
<path d="M156.57 55.7119C156.57 56.3787 156.82 57.2122 157.737 57.2122C158.32 57.2122 158.778 56.9621 158.862 56.4204H160.737C160.529 57.6706 159.404 58.6708 157.653 58.6708C155.653 58.6708 154.486 57.3372 154.486 55.7119C154.486 54.0867 155.736 52.7114 157.653 52.7114C159.57 52.7114 160.695 53.7949 160.779 55.1285H158.862C158.82 54.5867 158.403 54.2117 157.737 54.2117C156.82 54.2117 156.57 55.0452 156.57 55.7119Z" fill="white"/>
<path d="M168.114 55.9203H163.697C163.697 56.5871 164.155 57.2955 164.947 57.2955C165.614 57.2955 166.072 56.8371 166.072 56.4204H168.072C167.739 57.9206 166.53 58.6708 164.988 58.6708C163.03 58.6708 161.655 57.5039 161.655 55.7119C161.655 53.92 163.071 52.7114 164.988 52.7114C166.739 52.7114 168.156 53.7533 168.156 55.5869C168.114 55.6703 168.114 55.7953 168.114 55.9203ZM166.28 55.0035C166.28 55.0035 166.197 53.9616 165.03 53.9616C163.863 53.9616 163.738 55.0035 163.738 55.0035H166.28Z" fill="white"/>
<path d="M178.448 58.5459H176.49V55.2954C176.49 54.6286 176.24 54.2535 175.614 54.2535C174.989 54.2535 174.531 54.9203 174.531 55.6704V58.5042H172.572V52.7949H174.531V53.5034C174.906 53.0033 175.531 52.6699 176.281 52.6699C177.823 52.6699 178.448 53.7118 178.448 55.2537V58.5459Z" fill="white"/>
<path d="M184.284 52.8363H186.243V58.5456C186.243 60.4209 184.742 61.7961 182.95 61.7961C181.409 61.7961 179.7 61.0043 179.617 59.2957H181.575C181.7 59.9625 182.242 60.3792 182.867 60.3792C183.742 60.3792 184.326 59.5874 184.326 58.7956V57.8788C183.951 58.4622 183.075 58.7123 182.367 58.7123C180.742 58.7123 179.533 57.2954 179.533 55.7118C179.533 54.1282 180.742 52.7529 182.367 52.7529C183.075 52.7529 183.784 52.9196 184.326 53.5864V52.8363H184.284ZM184.284 55.6701C184.284 54.92 183.701 54.2532 182.909 54.2532C182.117 54.2532 181.534 54.92 181.534 55.6701C181.534 56.4202 182.117 57.1287 182.909 57.1287C183.701 57.1287 184.284 56.4619 184.284 55.6701Z" fill="white"/>
<path d="M193.909 55.9203H189.491C189.491 56.5871 189.95 57.2955 190.741 57.2955C191.408 57.2955 191.867 56.8371 191.867 56.4204H193.867C193.534 57.9206 192.325 58.6708 190.783 58.6708C188.824 58.6708 187.449 57.5039 187.449 55.7119C187.449 53.92 188.866 52.7114 190.783 52.7114C192.533 52.7114 193.95 53.7533 193.95 55.5869C193.95 55.6703 193.909 55.7953 193.909 55.9203ZM192.075 55.0035C192.075 55.0035 191.992 53.9616 190.825 53.9616C189.658 53.9616 189.533 55.0035 189.533 55.0035H192.075Z" fill="white"/>
<path d="M200.995 58.5462H199.036V55.2956C199.036 54.6288 198.786 54.2538 198.161 54.2538C197.536 54.2538 197.078 54.9205 197.078 55.6707V58.5045H195.119V52.7952H197.078V53.5036C197.453 53.0036 198.078 52.6702 198.828 52.6702C200.37 52.6702 200.995 53.712 200.995 55.2539V58.5462Z" fill="white"/>
<path d="M202.244 52.8369H204.203V56.0875C204.203 56.7542 204.453 57.1293 205.078 57.1293C205.703 57.1293 206.161 56.4625 206.161 55.7124V52.8369H208.12V58.5462H206.161V57.8378C205.786 58.3378 205.161 58.6712 204.411 58.6712C202.869 58.6712 202.244 57.6294 202.244 56.0875V52.8369Z" fill="white"/>
<path d="M210.662 49.7529C211.287 49.7529 211.787 50.253 211.787 50.8781C211.787 51.5032 211.287 52.0033 210.662 52.0033C210.037 52.0033 209.537 51.5032 209.537 50.8781C209.537 50.253 210.037 49.7529 210.662 49.7529ZM209.704 58.5461V52.8368H211.662V58.5461H209.704Z" fill="white"/>
<path d="M215.705 58.5458H213.788V54.3367H212.746V52.8365H213.788V50.6694H215.705V52.8365H216.747V54.3367H215.705V58.5458Z" fill="white"/>
<path d="M218.08 61.7968L219.372 58.5462H219.038L216.871 52.8369H218.83L220.205 56.9209L221.58 52.8369H223.539L221.372 58.5462L220.122 61.7968H218.08Z" fill="white"/>
<path d="M91.8085 20.29H99.9348V44.1274C99.9348 51.9621 93.7255 57.713 86.1408 57.713C79.6398 57.713 72.5552 54.4625 72.1802 47.2113H80.2649C80.8483 50.0451 83.0987 51.712 85.6824 51.712C89.2664 51.712 91.8085 48.4615 91.8085 45.0442V41.2519C90.1832 43.7523 86.6826 44.7108 83.6404 44.7108C76.8893 44.7108 71.7634 38.7932 71.7634 32.2087C71.7634 25.6243 76.8476 19.7483 83.6404 19.7483C86.6826 19.7483 89.4747 20.4984 91.8085 23.2072V20.29ZM91.8085 32.2087C91.8085 29.0832 89.3914 26.2494 86.1408 26.2494C82.8903 26.2494 80.4732 29.0832 80.4732 32.2087C80.4732 35.3343 82.8903 38.2097 86.1408 38.2097C89.3914 38.2097 91.8085 35.4176 91.8085 32.2087Z" fill="white"/>
<path d="M132.192 33.2506H113.689C113.689 36.001 115.647 38.9182 118.815 38.9182C121.69 38.9182 123.482 37.0429 123.524 35.2926H131.817C130.4 41.5853 125.316 44.7108 118.981 44.7108C110.772 44.7108 105.062 39.835 105.062 32.2504C105.062 24.6658 110.98 19.7483 118.981 19.7483C126.232 19.7483 132.233 24.0824 132.233 31.7086C132.233 32.2087 132.192 32.7505 132.192 33.2506ZM124.441 29.4166C124.441 29.4166 124.065 24.9575 119.148 24.9575C114.23 24.9575 113.772 29.4166 113.772 29.4166H124.441Z" fill="white"/>
<path d="M161.778 44.1691H153.652V30.6251C153.652 27.7913 152.568 26.2911 150.026 26.2911C147.484 26.2911 145.484 28.9998 145.484 32.2504V44.1691H137.357V20.29H145.484V23.2072C147.109 21.1652 149.651 19.7483 152.776 19.7483C159.153 19.7483 161.778 24.124 161.778 30.6251V44.1691Z" fill="white"/>
<path d="M166.945 20.2898H175.072V33.8754C175.072 36.6259 176.155 38.2095 178.697 38.2095C181.239 38.2095 183.24 35.459 183.24 32.2501V20.2898H191.366V44.1688H183.24V41.2517C181.614 43.2937 179.072 44.7106 175.947 44.7106C169.571 44.7106 166.945 40.3348 166.945 33.8754V20.2898Z" fill="white"/>
<path d="M203.7 20.3738L208.409 27.6667L213.118 20.3738H222.537L213.618 32.1674L223.328 44.1695H213.41L208.409 36.7932L203.408 44.1695H193.49L203.2 32.1674L194.282 20.3738H203.7Z" fill="white"/>
<path d="M83.8047 26.7493C87.0552 28.6246 87.0552 33.2921 83.8047 35.1674L61.1759 48.2529L38.547 61.3384C35.2965 63.2138 31.2542 60.88 31.2542 57.1294V4.8706C31.2542 1.11997 35.2965 -1.21376 38.547 0.661556L61.1759 13.7471L83.8047 26.7493Z" fill="#EC4D37"/>
<path d="M67.5116 44.1688H58.8434V29.708C58.8434 26.7075 57.6766 25.0822 54.9678 25.0822C52.259 25.0822 50.092 27.9577 50.092 31.4583V44.1688H41.4238V18.6645H50.092V21.79C51.8422 19.5813 54.551 18.0811 57.8849 18.0811C64.7194 18.0811 67.4699 22.7485 67.4699 29.708L67.5116 44.1688Z" fill="white"/>
<path d="M2.45875 22.1648H16.5861C17.9197 22.1648 19.0449 23.0816 19.0449 24.2068V24.2485C19.0449 25.3737 17.9614 26.2905 16.5861 26.2905H2.45875C1.12519 26.2905 0 25.3737 0 24.2485V24.2068C0.0416737 23.0816 1.12519 22.1648 2.45875 22.1648Z" fill="#EC4D37"/>
<path d="M20.5879 24.2494C20.5879 23.1658 21.463 22.249 22.5882 22.249C23.6717 22.249 24.5886 23.1242 24.5886 24.2494C24.5886 25.3329 23.7134 26.2497 22.5882 26.2497C21.5047 26.2497 20.5879 25.3745 20.5879 24.2494Z" fill="white"/>
<path d="M26.0039 24.2494C26.0039 23.1658 26.8791 22.249 28.0042 22.249C29.0878 22.249 30.0046 23.1242 30.0046 24.2494C30.0046 25.3329 29.1294 26.2497 28.0042 26.2497C26.9207 26.2497 26.0039 25.3745 26.0039 24.2494Z" fill="white"/>
<path d="M14.4199 29.4164C14.4199 28.3328 15.2951 27.416 16.4203 27.416C17.5038 27.416 18.4206 28.2912 18.4206 29.4164C18.4206 30.4999 17.5454 31.4167 16.4203 31.4167C15.2951 31.4167 14.4199 30.5415 14.4199 29.4164Z" fill="white"/>
<path d="M22.4627 27.458H35.0898C36.4233 27.458 37.5485 28.3748 37.5485 29.5V29.5417C37.5485 30.6669 36.465 31.5837 35.0898 31.5837H22.4627C21.1291 31.5837 20.0039 30.6669 20.0039 29.5417V29.5C20.0456 28.3748 21.1291 27.458 22.4627 27.458Z" fill="#EC4D37"/>
<path d="M16.5447 40.0016C16.5447 38.918 17.4198 38.0012 18.545 38.0012C19.6285 38.0012 20.5454 38.8764 20.5454 40.0016C20.5454 41.0851 19.6702 42.0019 18.545 42.0019C17.4198 42.0019 16.5447 41.1267 16.5447 40.0016Z" fill="white"/>
<path d="M24.5877 38.043H37.2148C38.5483 38.043 39.6735 38.9598 39.6735 40.085V40.1267C39.6735 41.2518 38.59 42.1687 37.2148 42.1687H24.5877C23.2541 42.1687 22.1289 41.2518 22.1289 40.1267V40.085C22.1706 38.9181 23.2541 38.043 24.5877 38.043Z" fill="#EC4D37"/>
<path d="M13.0837 32.75H27.5028C28.8364 32.75 29.9616 33.6668 29.9616 34.792V34.8337C29.9616 35.9589 28.8781 36.8757 27.5028 36.8757H13.0837C11.7502 36.8757 10.625 35.9589 10.625 34.8337V34.7503C10.6667 33.6251 11.7502 32.75 13.0837 32.75Z" fill="#EC4D37"/>
</svg>
